<?xml version="1.0" standalone="no"?>
<!DOCTYPE svg PUBLIC "-//W3C//DTD SVG 20010904//EN"
 "http://www.w3.org/TR/2001/REC-SVG-20010904/DTD/svg10.dtd">
<svg version="1.0" xmlns="http://www.w3.org/2000/svg"
 width="1166.000000pt" height="1198.000000pt" viewBox="0 0 1166.000000 1198.000000"
 preserveAspectRatio="xMidYMid meet">

<g transform="translate(0.000000,1198.000000) scale(0.100000,-0.100000)"
fill="#000000" stroke="none">
<path d="M5873 10776 c-82 -19 -167 -63 -357 -186 -241 -155 -973 -604 -1401
-860 -684 -409 -1400 -828 -1620 -950 -338 -186 -429 -253 -529 -390 -43 -59
-101 -195 -124 -291 -6 -26 -17 -129 -23 -230 -7 -101 -15 -186 -19 -189 -14
-10 -42 -158 -55 -290 -19 -196 -11 -969 15 -1460 6 -102 12 -232 15 -290 7
-150 16 -279 22 -325 3 -22 7 -211 9 -420 2 -209 9 -423 15 -475 23 -210 109
-362 274 -485 22 -17 42 -32 45 -35 3 -3 39 -27 80 -55 41 -27 77 -53 78 -57
2 -5 10 -8 18 -8 8 0 14 -7 12 -16 -2 -10 4 -19 12 -21 13 -4 13 -3 0 7 -13
10 -13 11 0 7 8 -2 14 -9 13 -15 -2 -6 12 -21 30 -33 17 -12 37 -27 42 -34 6
-6 19 -17 31 -25 22 -16 127 -106 209 -181 27 -25 84 -74 125 -109 41 -35 77
-66 80 -70 3 -3 32 -27 65 -52 33 -25 69 -54 80 -65 24 -22 146 -128 188 -163
68 -57 278 -240 368 -320 95 -85 308 -265 364 -309 17 -12 46 -37 65 -55 38
-35 325 -269 369 -301 15 -11 50 -39 77 -62 307 -260 391 -327 504 -405 112
-77 166 -105 275 -144 72 -25 93 -28 215 -28 129 -1 230 15 230 36 0 4 9 8 20
8 11 0 38 11 60 25 40 25 51 49 28 58 -7 3 34 6 92 6 150 2 337 18 391 35 26
8 66 24 90 36 54 28 258 164 359 240 41 31 167 124 280 207 113 82 324 236
470 343 372 272 1032 748 1345 970 83 58 249 177 370 263 121 86 253 180 294
209 98 69 232 197 287 274 55 77 95 163 125 274 l24 85 3 1615 c4 1736 2 1827
-45 1989 -55 193 -168 356 -338 490 -98 78 -757 521 -1002 674 -66 41 -184
117 -264 169 -79 52 -247 161 -374 242 -312 201 -556 364 -830 553 -330 229
-355 246 -514 361 -270 195 -345 231 -504 237 -67 3 -123 0 -164 -9z m220 -97
c40 -6 101 -24 136 -40 64 -29 236 -146 431 -293 58 -43 152 -112 210 -152 58
-41 195 -140 305 -220 110 -80 286 -207 390 -282 105 -75 251 -182 326 -237
75 -55 156 -114 180 -131 24 -17 168 -122 319 -233 333 -245 439 -322 685
-498 364 -259 464 -362 535 -544 63 -165 60 -59 60 -1889 0 -1420 -2 -1679
-15 -1738 -39 -189 -126 -320 -310 -469 -48 -38 -426 -315 -640 -468 -55 -39
-215 -154 -355 -255 -971 -698 -1432 -1024 -1935 -1366 -342 -233 -382 -253
-520 -261 -60 -3 -85 -1 -76 5 9 7 12 19 7 38 -4 16 -7 35 -8 42 -1 7 -20 16
-42 19 -35 7 -28 9 54 15 177 13 289 58 496 200 474 326 552 380 824 573 102
72 256 180 343 240 87 61 222 155 300 211 78 55 259 183 402 284 925 653 1161
838 1254 985 40 62 87 213 101 319 7 55 10 586 8 1646 -4 1551 -4 1566 -24
1640 -49 175 -86 252 -169 353 -66 80 -135 136 -460 372 -143 104 -357 262
-475 350 -280 210 -455 338 -790 578 -306 219 -327 234 -455 328 -49 36 -182
130 -295 209 -113 79 -275 196 -360 260 -264 198 -324 232 -447 256 -123 24
-224 2 -364 -77 -41 -23 -213 -139 -384 -259 -170 -119 -393 -273 -495 -344
-213 -146 -413 -286 -672 -471 -425 -301 -734 -511 -1217 -827 -331 -216 -335
-219 -435 -316 -137 -134 -203 -261 -224 -432 -16 -127 -21 -3353 -5 -3400 6
-19 19 -62 29 -95 54 -181 183 -350 384 -505 25 -19 47 -37 50 -40 3 -4 66
-50 140 -103 74 -53 140 -100 145 -105 6 -5 24 -17 40 -28 17 -10 40 -28 53
-38 45 -39 363 -266 373 -266 5 0 9 -3 9 -7 0 -5 24 -24 52 -43 29 -19 62 -43
72 -53 11 -9 23 -17 26 -17 4 0 18 -9 31 -20 13 -11 29 -23 34 -28 6 -5 24
-17 40 -28 17 -10 36 -25 44 -32 8 -8 33 -25 55 -39 23 -14 43 -29 46 -32 3
-3 23 -18 45 -33 22 -14 49 -33 60 -42 11 -9 65 -48 120 -86 55 -38 105 -74
110 -78 6 -5 23 -17 38 -26 15 -10 27 -22 27 -27 0 -15 -147 86 -505 347 -82
60 -161 117 -175 127 -31 21 -139 95 -251 173 -48 32 -102 72 -122 88 -19 15
-46 36 -60 45 -14 9 -58 41 -99 72 -41 31 -119 88 -174 125 -54 38 -139 102
-189 142 -49 40 -120 98 -156 127 -93 75 -206 225 -263 348 -9 20 -22 37 -29
37 -7 0 -21 14 -32 30 -11 16 -25 30 -32 30 -6 0 -14 13 -18 29 -4 21 -11 28
-24 24 -10 -2 -26 4 -36 13 -10 10 -28 24 -41 30 -21 11 -23 9 -29 -23 -8 -42
2 -104 21 -141 8 -15 14 -31 14 -36 0 -14 85 -128 124 -166 19 -19 36 -39 36
-43 0 -5 -6 -2 -14 5 -7 7 -26 25 -42 40 -34 31 -54 55 -54 63 0 3 -14 24 -30
47 -17 22 -30 47 -30 55 0 7 -3 13 -8 13 -9 0 -42 91 -42 117 0 10 -6 25 -12
31 -10 10 -14 364 -18 1675 -5 1827 -4 1965 29 2051 60 161 152 275 311 388
120 84 417 261 780 464 200 111 617 369 915 565 121 80 328 214 460 299 234
150 462 299 950 623 269 178 303 197 395 220 114 29 138 31 233 16z m-28 -903
c33 -8 78 -23 100 -33 73 -33 288 -183 430 -301 72 -59 183 -147 280 -220 211
-160 313 -240 644 -505 36 -29 102 -79 148 -112 92 -67 315 -236 323 -246 3
-3 50 -39 105 -80 260 -194 434 -348 544 -484 109 -135 155 -227 202 -403 31
-117 39 -248 44 -742 3 -256 9 -566 15 -690 25 -594 33 -1144 19 -1395 -14
-265 -20 -325 -29 -325 -4 0 -10 -10 -14 -23 -12 -49 -140 -154 -482 -394
-402 -284 -506 -356 -1104 -765 -671 -459 -1264 -848 -1312 -863 -65 -19 -158
-19 -231 0 -113 29 -192 78 -737 460 -135 95 -342 238 -460 320 -118 82 -307
214 -420 294 -113 80 -288 204 -390 276 -102 72 -252 178 -335 235 -177 123
-265 208 -360 350 -38 58 -94 136 -123 175 -28 38 -68 100 -88 137 -70 135
-67 65 -68 1618 0 1463 1 1507 44 1640 17 55 38 97 75 155 28 45 149 162 176
170 12 4 32 16 43 26 11 11 26 17 33 15 7 -3 13 -1 13 4 0 10 56 43 64 38 9
-6 146 88 151 105 4 9 12 17 20 17 7 0 20 6 27 13 7 6 29 21 48 31 19 11 37
22 40 25 3 3 46 33 95 66 50 33 96 66 103 73 7 6 17 12 21 12 4 0 16 8 27 18
10 9 53 39 94 67 41 27 77 53 78 57 2 4 8 8 13 8 6 0 34 18 64 40 30 22 58 40
62 40 5 0 20 11 34 24 14 13 35 27 47 30 12 4 22 12 22 17 0 5 6 9 13 9 8 0
24 9 37 20 13 11 30 20 38 20 9 0 23 6 31 14 9 7 35 24 58 38 40 23 144 101
234 175 21 17 52 37 69 45 16 7 30 16 30 20 0 4 33 22 73 42 64 31 173 98 187
115 7 9 159 109 245 161 39 23 117 73 175 111 139 90 333 199 395 222 126 45
223 55 320 33z m-1690 -7194 c-3 -3 -11 0 -18 7 -9 10 -8 11 6 5 10 -3 15 -9
12 -12z m55 -29 c14 -9 27 -19 30 -23 3 -3 22 -16 42 -30 21 -14 38 -29 38
-33 0 -8 -51 26 -129 85 -30 23 -14 24 19 1z m205 -146 l20 -19 -20 10 c-11 6
-29 18 -40 26 l-20 16 20 -7 c11 -4 29 -16 40 -26z"/>
<path d="M2053 4450 c0 -36 2 -50 4 -32 2 17 2 47 0 65 -2 17 -4 3 -4 -33z"/>
<path d="M5865 8724 c-120 -19 -275 -91 -495 -233 -567 -366 -949 -624 -1062
-717 -220 -182 -336 -403 -382 -729 -11 -82 -18 -278 -27 -771 -6 -364 -12
-679 -15 -700 -2 -21 -4 -142 -4 -269 -1 -186 3 -254 20 -355 45 -282 86 -439
128 -500 10 -14 23 -36 30 -50 20 -39 119 -150 215 -241 79 -74 195 -168 417
-338 41 -31 125 -95 185 -141 61 -47 193 -147 295 -222 102 -76 203 -152 225
-169 165 -126 293 -170 405 -139 25 7 90 16 145 20 160 12 221 38 442 190 214
148 276 191 483 338 223 158 475 336 639 452 146 103 234 189 271 264 55 113
65 172 65 376 0 102 -4 222 -9 266 -8 77 -7 87 22 170 56 161 55 146 54 654
-3 852 -12 1037 -58 1177 -69 206 -176 349 -364 485 -156 113 -971 649 -1054
694 -126 67 -178 83 -299 95 -178 17 -336 -11 -467 -83 -109 -60 -532 -323
-805 -501 -463 -301 -534 -353 -616 -449 -62 -73 -129 -165 -129 -178 0 -13
-17 -13 -25 0 -4 6 -11 7 -17 4 -17 -11 -1 165 22 239 22 70 60 135 116 197
68 75 155 138 669 490 110 75 304 209 430 298 352 247 486 305 705 305 63 0
151 -3 195 -7 l80 -7 -30 20 c-67 46 -134 64 -255 67 -63 1 -128 0 -145 -2z
m315 -548 c88 -25 194 -82 370 -201 91 -61 284 -192 430 -290 514 -346 559
-384 625 -520 63 -130 65 -161 60 -939 -3 -427 -9 -712 -15 -741 -33 -147
-111 -225 -463 -460 -148 -99 -326 -219 -395 -268 -70 -48 -170 -117 -222
-153 -52 -36 -147 -102 -210 -146 -63 -44 -141 -93 -172 -109 -77 -39 -196
-63 -273 -54 -142 15 -208 45 -400 178 -71 50 -202 140 -290 201 -88 61 -215
147 -282 191 -187 123 -445 296 -474 319 -14 12 -37 28 -49 36 -52 34 -140
115 -140 130 0 3 -8 15 -18 26 -19 21 -45 77 -63 139 -15 49 -30 1233 -18
1371 9 100 25 156 72 254 42 87 164 209 277 279 164 101 317 198 555 352 323
209 542 344 611 374 95 42 176 55 309 50 66 -2 145 -11 175 -19z m1612 -3219
c-7 -340 -65 -438 -382 -642 -208 -133 -528 -351 -1060 -721 -91 -63 -198
-132 -239 -152 -68 -34 -83 -37 -175 -40 -93 -4 -108 -1 -185 27 -134 49 -134
49 -846 551 -362 255 -641 458 -687 499 -101 91 -173 205 -202 322 -17 71 -21
123 -8 101 8 -12 41 -7 52 9 3 4 21 16 41 27 l36 20 36 -21 c20 -12 75 -53
123 -92 88 -69 162 -120 709 -490 160 -108 355 -241 435 -296 174 -120 260
-164 360 -184 143 -29 263 -14 395 48 76 36 331 201 476 306 42 31 163 117
268 191 106 74 209 147 229 162 98 72 125 94 136 106 6 8 21 24 32 37 12 13
31 37 43 54 12 17 28 31 36 31 7 0 15 4 17 8 2 5 30 28 63 53 33 24 62 46 65
49 18 20 174 130 183 130 7 0 19 9 27 20 8 11 16 17 19 14 3 -2 4 -60 3 -127z
m-446 -203 c-11 -8 -25 -14 -30 -13 -6 0 -1 5 12 11 12 6 22 16 22 21 0 6 3 7
7 3 5 -4 -1 -14 -11 -22z"/>
<path d="M5850 7844 c-111 -29 -226 -99 -883 -531 -297 -196 -375 -285 -398
-453 -7 -46 -9 -282 -7 -620 4 -529 4 -547 25 -598 42 -104 108 -170 303 -301
80 -53 243 -164 363 -247 362 -248 425 -283 554 -305 85 -15 219 -6 305 21 36
11 112 48 169 83 99 60 137 85 399 255 63 41 144 94 180 117 227 146 281 185
333 236 76 76 105 142 117 268 13 136 13 991 -1 1088 -13 92 -60 202 -112 260
-35 38 -163 133 -357 263 -52 36 -204 140 -336 232 -133 92 -270 181 -305 198
-109 51 -238 63 -349 34z m298 -622 c32 -16 110 -66 173 -110 63 -44 206 -142
319 -219 295 -199 290 -189 290 -628 0 -312 -4 -345 -53 -442 -50 -97 -91
-131 -327 -270 -52 -31 -171 -106 -265 -168 -208 -136 -240 -150 -361 -150
-82 0 -96 3 -155 33 -72 37 -513 354 -601 431 -63 57 -110 139 -128 226 -7 36
-10 163 -8 372 l3 318 37 56 c42 66 103 115 299 240 79 51 209 136 289 189
217 146 256 162 362 156 47 -3 84 -13 126 -34z"/>
</g>
</svg>
